<?xml version="1.0" standalone="no"?>
<!DOCTYPE svg PUBLIC "-//W3C//DTD SVG 20010904//EN"
 "http://www.w3.org/TR/2001/REC-SVG-20010904/DTD/svg10.dtd">
<svg version="1.0" xmlns="http://www.w3.org/2000/svg"
 width="512.000000pt" height="512.000000pt" viewBox="0 0 512.000000 512.000000"
 preserveAspectRatio="xMidYMid meet">

<g transform="translate(0.000000,512.000000) scale(0.100000,-0.100000)"
fill="#000000" stroke="none">
<path d="M539 3189 c-126 -18 -257 -87 -353 -184 -70 -72 -117 -148 -152 -250
-24 -70 -28 -95 -27 -195 0 -99 4 -126 27 -195 82 -239 280 -404 523 -436 52
-6 746 -9 2058 -7 l1980 3 80 28 c201 71 344 214 408 407 112 339 -72 697
-418 812 l-70 23 -2000 1 c-1100 1 -2025 -2 -2056 -7z m2764 -208 l107 -1 0
-423 0 -423 -1417 1 -1418 2 -65 22 c-126 43 -206 117 -261 241 -20 47 -24 71
-24 161 0 101 1 108 38 181 60 122 178 216 297 236 34 6 2359 9 2743 3z"/>
</g>
</svg>
