<svg xmlns="http://www.w3.org/2000/svg" viewBox="0 0 16 16" id="Copyright--Streamline-Font-Awesome" height="16" width="16">
  <desc>
    Copyright Streamline Icon: https://streamlinehq.com
  </desc>
<!--! Font Awesome Free 6.5.2 by @fontawesome - https://fontawesome.com License - https://fontawesome.com/license/free (Icons: CC BY 4.0, Fonts: SIL OFL 1.1, Code: MIT License) Copyright 2024 Fonticons, Inc.-->
  <path d="M8 1.5a6.5 6.5 0 1 1 0 13 6.5 6.5 0 1 1 0 -13zm0 14.5a8 8 0 1 0 0 -16 8 8 0 1 0 0 16zm-1.76875 -6.23125c-0.975 -0.975 -0.975 -2.559375 0 -3.534375s2.559375 -0.975 3.534375 0c0.29375 0.29375 0.76875 0.29375 1.059375 0s0.29375 -0.76875 0 -1.059375c-1.5625 -1.5625 -4.09375 -1.5625 -5.65625 0s-1.5625 4.09375 0 5.65625 4.09375 1.5625 5.65625 0c0.29375 -0.29375 0.29375 -0.76875 0 -1.059375s-0.76875 -0.29375 -1.059375 0c-0.975 0.975 -2.559375 0.975 -3.534375 0z" fill="#000000" stroke-width="0.0313"></path>
</svg>