<svg xmlns="http://www.w3.org/2000/svg" viewBox="0 0 16 16" id="Envelope--Streamline-Font-Awesome" height="16" width="16">
  <desc>
    Envelope Streamline Icon: https://streamlinehq.com
  </desc>
<!--! Font Awesome Free 6.5.2 by @fontawesome - https://fontawesome.com License - https://fontawesome.com/license/free (Icons: CC BY 4.0, Fonts: SIL OFL 1.1, Code: MIT License) Copyright 2024 Fonticons, Inc.-->
  <path d="M1.5 2C0.671875 2 0 2.671875 0 3.5c0 0.471875 0.221875 0.915625 0.6 1.2l6.8 5.1c0.35625 0.265625 0.84375 0.265625 1.2 0l6.8 -5.1c0.378125 -0.284375 0.6 -0.728125 0.6 -1.2 0 -0.828125 -0.671875 -1.5 -1.5 -1.5H1.5zM0 5.5v6.5c0 1.103125 0.896875 2 2 2h12c1.103125 0 2 -0.896875 2 -2V5.5L9.2 10.6c-0.7125 0.534375 -1.6875 0.534375 -2.4 0L0 5.5z" fill="#000000" stroke-width="0.0313"></path>
</svg>