<svg xmlns="http://www.w3.org/2000/svg" viewBox="0 0 16 16" id="Phone--Streamline-Font-Awesome" height="16" width="16">
  <desc>
    Phone Streamline Icon: https://streamlinehq.com
  </desc>
<!--! Font Awesome Free 6.5.2 by @fontawesome - https://fontawesome.com License - https://fontawesome.com/license/free (Icons: CC BY 4.0, Fonts: SIL OFL 1.1, Code: MIT License) Copyright 2024 Fonticons, Inc.-->
  <path d="M5.153125 0.76875c-0.240625 -0.58125 -0.875 -0.890625 -1.48125 -0.725l-2.75 0.75C0.378125 0.94375 0 1.4375 0 2c0 7.73125 6.26875 14 14 14 0.5625 0 1.05625 -0.378125 1.20625 -0.921875l0.75 -2.75c0.165625 -0.60625 -0.14375 -1.240625 -0.725 -1.48125l-3 -1.25c-0.509375 -0.2125 -1.1 -0.065625 -1.446875 0.3625L9.521875 11.5c-2.2 -1.040625 -3.98125 -2.821875 -5.021875 -5.021875l1.540625 -1.259375c0.428125 -0.35 0.575 -0.9375 0.3625 -1.446875l-1.25 -3z" fill="#000000" stroke-width="0.0313"></path>
</svg>