<svg xmlns="http://www.w3.org/2000/svg" viewBox="0 0 16 16" id="Map-Location-Dot--Streamline-Font-Awesome" height="16" width="16">
  <desc>
    Map Location Dot Streamline Icon: https://streamlinehq.com
  </desc>
<!--! Font Awesome Free 6.5.2 by @fontawesome - https://fontawesome.com License - https://fontawesome.com/license/free (Icons: CC BY 4.0, Fonts: SIL OFL 1.1, Code: MIT License) Copyright 2024 Fonticons, Inc.-->
  <path d="M11.266666666666667 4.4007c0 1.4863333333333333 -1.9899444444444445 4.135055555555555 -2.8637777777777775 5.226666666666667 -0.2096111111111111 0.2613333333333333 -0.5988888888888888 0.2613333333333333 -0.8057777777777777 0 -0.8738333333333332 -1.091611111111111 -2.8637777777777775 -3.7403333333333326 -2.8637777777777775 -5.226666666666667 0 -1.8048333333333333 1.461833333333333 -3.266666666666666 3.266666666666666 -3.266666666666666s3.266666666666666 1.461833333333333 3.266666666666666 3.266666666666666Zm0.21777777777777776 2.1886666666666668c0.09527777777777778 -0.18783333333333332 0.18238888888888888 -0.37566666666666665 0.2613333333333333 -0.5607777777777777 0.01361111111111111 -0.03266666666666666 0.02722222222222222 -0.06805555555555556 0.04083333333333333 -0.10072222222222221l3.1577777777777776 -1.263111111111111c0.4301111111111111 -0.1715 0.895611111111111 0.14427777777777775 0.895611111111111 0.6070555555555555v7.371777777777778c0 0.2667777777777777 -0.16333333333333333 0.5063333333333333 -0.4110555555555555 0.6070555555555555l-3.9445 1.5761666666666665v-8.237444444444444Zm-7.578666666666666 -1.6905c0.06533333333333333 0.3838333333333333 0.19599999999999998 0.7703888888888889 0.34844444444444445 1.1297222222222223 0.07894444444444444 0.1851111111111111 0.16605555555555554 0.3729444444444444 0.2613333333333333 0.5607777777777777v6.843666666666667l-3.4599444444444445 1.385611111111111c-0.4301111111111111 0.1715 -0.895611111111111 -0.14427777777777775 -0.895611111111111 -0.6070555555555555v-7.371777777777778c0 -0.2667777777777777 0.16333333333333333 -0.5063333333333333 0.4110555555555555 -0.6070555555555555l3.337444444444444 -1.333888888888889Zm5.177666666666666 5.272944444444444c0.3783888888888889 -0.4736666666666666 0.9718333333333332 -1.2440555555555555 1.5298888888888889 -2.096111111111111v6.786499999999999l-5.226666666666667 -1.4945v-5.292c0.5580555555555555 0.8520555555555555 1.1515 1.6224444444444444 1.5298888888888889 2.096111111111111 0.5580555555555555 0.6968888888888889 1.6088333333333331 0.6968888888888889 2.166888888888889 0ZM8 5.271811111111111c0.8382277777777778 0 1.3621194444444442 -0.9074055555555556 0.9430055555555555 -1.633333333333333 -0.19451111111111108 -0.3369027777777778 -0.5539833333333333 -0.5444444444444445 -0.9430055555555555 -0.5444444444444445 -0.8382277777777778 0 -1.3621194444444442 0.9074083333333333 -0.9430055555555555 1.633333333333333 0.19451111111111108 0.33690555555555557 0.5539833333333333 0.5444444444444445 0.9430055555555555 0.5444444444444445Z" fill="#000000" stroke-width="0.0278"></path>
</svg>