<?xml version="1.0" encoding="UTF-8"?>
<svg xmlns="http://www.w3.org/2000/svg" xmlns:xlink="http://www.w3.org/1999/xlink" width="2501" height="2501" viewBox="0 0 2501 2501">
<path fill-rule="evenodd" fill="rgb(30.200195%, 30.200195%, 30.200195%)" fill-opacity="1" d="M 809.550781 1243.800781 C 790.246094 1243.800781 771.984375 1251.511719 758.351562 1265.148438 C 744.71875 1278.78125 737 1297.039062 737 1316.351562 C 737 1335.648438 744.71875 1353.910156 758.351562 1367.550781 C 771.984375 1381.179688 790.246094 1388.898438 809.550781 1388.898438 L 809.550781 1243.800781 "/>
<path fill-rule="evenodd" fill="rgb(30.200195%, 30.200195%, 30.200195%)" fill-opacity="1" d="M 911.214844 1243.800781 L 852.253906 1243.800781 L 852.253906 1388.898438 L 911.214844 1388.898438 L 911.214844 1243.800781 "/>
<path fill-rule="evenodd" fill="rgb(30.200195%, 30.200195%, 30.200195%)" fill-opacity="1" d="M 1012.878906 1243.800781 L 953.914062 1243.800781 L 953.914062 1388.898438 L 1012.878906 1388.898438 L 1012.878906 1243.800781 "/>
<path fill-rule="evenodd" fill="rgb(30.200195%, 30.200195%, 30.200195%)" fill-opacity="1" d="M 1114.539062 1243.800781 L 1055.578125 1243.800781 L 1055.578125 1388.898438 L 1114.539062 1388.898438 L 1114.539062 1243.800781 "/>
<path fill-rule="evenodd" fill="rgb(30.200195%, 30.200195%, 30.200195%)" fill-opacity="1" d="M 1216.210938 1243.800781 L 1157.238281 1243.800781 L 1157.238281 1388.898438 L 1216.210938 1388.898438 L 1216.210938 1243.800781 "/>
<path fill-rule="evenodd" fill="rgb(30.200195%, 30.200195%, 30.200195%)" fill-opacity="1" d="M 1317.871094 1243.800781 L 1258.910156 1243.800781 L 1258.910156 1388.898438 L 1317.871094 1388.898438 L 1317.871094 1243.800781 "/>
<path fill-rule="evenodd" fill="rgb(30.200195%, 30.200195%, 30.200195%)" fill-opacity="1" d="M 1419.53125 1243.800781 L 1360.570312 1243.800781 L 1360.570312 1388.898438 L 1419.53125 1388.898438 L 1419.53125 1243.800781 "/>
<path fill-rule="evenodd" fill="rgb(30.200195%, 30.200195%, 30.200195%)" fill-opacity="1" d="M 1521.199219 1243.800781 L 1462.230469 1243.800781 L 1462.230469 1388.898438 L 1521.199219 1388.898438 L 1521.199219 1243.800781 "/>
<path fill-rule="nonzero" fill="rgb(30.200195%, 30.200195%, 30.200195%)" fill-opacity="1" d="M 809.550781 1173.949219 L 1692.128906 1173.949219 C 1731.308594 1173.949219 1766.910156 1189.96875 1792.710938 1215.761719 C 1818.511719 1241.558594 1834.519531 1277.171875 1834.519531 1316.351562 C 1834.519531 1355.53125 1818.511719 1391.128906 1792.710938 1416.929688 C 1766.910156 1442.730469 1731.308594 1458.738281 1692.128906 1458.738281 L 809.550781 1458.738281 C 770.371094 1458.738281 734.765625 1442.730469 708.96875 1416.929688 C 683.171875 1391.128906 667.15625 1355.53125 667.15625 1316.351562 C 667.15625 1277.171875 683.171875 1241.558594 708.96875 1215.761719 C 734.765625 1189.96875 770.371094 1173.949219 809.550781 1173.949219 Z M 1692.128906 1216.648438 L 809.550781 1216.648438 C 782.15625 1216.648438 757.238281 1227.871094 739.160156 1245.949219 C 721.078125 1264.03125 709.855469 1288.949219 709.855469 1316.351562 C 709.855469 1343.738281 721.078125 1368.660156 739.160156 1386.738281 C 757.234375 1404.820312 782.15625 1416.039062 809.550781 1416.039062 L 1692.128906 1416.039062 C 1719.519531 1416.039062 1744.441406 1404.820312 1762.519531 1386.738281 C 1780.601562 1368.660156 1791.820312 1343.738281 1791.820312 1316.351562 C 1791.820312 1288.949219 1780.601562 1264.03125 1762.519531 1245.949219 C 1744.441406 1227.871094 1719.519531 1216.648438 1692.128906 1216.648438 "/>
<path fill-rule="nonzero" fill="rgb(30.200195%, 30.200195%, 30.200195%)" fill-opacity="1" d="M 980.320312 1125.570312 L 931.128906 1125.570312 L 931.128906 1042.980469 L 949.746094 1042.980469 L 949.746094 1110.46875 L 980.320312 1110.46875 L 980.320312 1125.570312 "/>
<path fill-rule="nonzero" fill="rgb(30.200195%, 30.200195%, 30.200195%)" fill-opacity="1" d="M 1022 1127.011719 C 1010.171875 1127.011719 1000.53125 1123.148438 993.078125 1115.46875 C 985.628906 1107.761719 981.914062 1097.730469 981.914062 1085.371094 C 981.914062 1072.308594 985.6875 1061.75 993.257812 1053.691406 C 1000.828125 1045.628906 1010.828125 1041.578125 1023.320312 1041.578125 C 1035.109375 1041.578125 1044.648438 1045.449219 1051.929688 1053.160156 C 1059.199219 1060.890625 1062.839844 1071.070312 1062.839844 1083.691406 C 1062.839844 1096.671875 1059.058594 1107.148438 1051.511719 1115.089844 C 1043.980469 1123.039062 1034.128906 1127.011719 1022 1127.011719 Z M 1022.808594 1057.609375 C 1016.28125 1057.609375 1011.089844 1060.039062 1007.261719 1064.960938 C 1003.421875 1069.851562 1001.488281 1076.320312 1001.488281 1084.378906 C 1001.488281 1092.558594 1003.421875 1099.03125 1007.261719 1103.808594 C 1011.089844 1108.570312 1016.121094 1110.941406 1022.339844 1110.941406 C 1028.761719 1110.941406 1033.839844 1108.621094 1037.609375 1104 C 1041.371094 1099.359375 1043.25 1092.960938 1043.25 1084.738281 C 1043.25 1076.160156 1041.429688 1069.5 1037.789062 1064.738281 C 1034.128906 1059.980469 1029.140625 1057.609375 1022.808594 1057.609375 "/>
<path fill-rule="nonzero" fill="rgb(30.200195%, 30.200195%, 30.200195%)" fill-opacity="1" d="M 1147.320312 1125.570312 L 1127.050781 1125.570312 L 1121.171875 1107.191406 L 1091.800781 1107.191406 L 1085.980469 1125.570312 L 1065.808594 1125.570312 L 1095.890625 1042.980469 L 1117.949219 1042.980469 Z M 1116.910156 1092.921875 L 1108.039062 1065.148438 C 1107.390625 1063.070312 1106.921875 1060.589844 1106.640625 1057.71875 L 1106.191406 1057.71875 C 1105.988281 1060.140625 1105.519531 1062.539062 1104.75 1064.921875 L 1095.769531 1092.921875 L 1116.910156 1092.921875 "/>
<path fill-rule="nonzero" fill="rgb(30.200195%, 30.200195%, 30.200195%)" fill-opacity="1" d="M 1157.308594 1125.570312 L 1157.308594 1042.980469 L 1186.578125 1042.980469 C 1215.921875 1042.980469 1230.578125 1056.390625 1230.578125 1083.238281 C 1230.578125 1096.101562 1226.570312 1106.359375 1218.570312 1114.050781 C 1210.570312 1121.738281 1199.910156 1125.570312 1186.578125 1125.570312 Z M 1175.929688 1058.121094 L 1175.929688 1110.46875 L 1185.148438 1110.46875 C 1193.210938 1110.46875 1199.519531 1108.050781 1204.121094 1103.21875 C 1208.699219 1098.378906 1211 1091.789062 1211 1083.460938 C 1211 1075.589844 1208.71875 1069.398438 1204.179688 1064.898438 C 1199.621094 1060.378906 1193.25 1058.121094 1185.03125 1058.121094 L 1175.929688 1058.121094 "/>
<path fill-rule="nonzero" fill="rgb(30.200195%, 30.200195%, 30.200195%)" fill-opacity="1" d="M 1262.589844 1125.570312 L 1243.980469 1125.570312 L 1243.980469 1042.980469 L 1262.589844 1042.980469 L 1262.589844 1125.570312 "/>
<path fill-rule="nonzero" fill="rgb(30.200195%, 30.200195%, 30.200195%)" fill-opacity="1" d="M 1355.351562 1125.570312 L 1336.578125 1125.570312 L 1302.53125 1073.671875 C 1300.539062 1070.640625 1299.140625 1068.359375 1298.378906 1066.828125 L 1298.160156 1066.828125 C 1298.460938 1069.738281 1298.609375 1074.199219 1298.609375 1080.179688 L 1298.609375 1125.570312 L 1281.039062 1125.570312 L 1281.039062 1042.980469 L 1301.089844 1042.980469 L 1333.871094 1093.25 C 1335.359375 1095.53125 1336.738281 1097.769531 1338.011719 1099.988281 L 1338.25 1099.988281 C 1337.929688 1098.089844 1337.78125 1094.289062 1337.78125 1088.648438 L 1337.78125 1042.980469 L 1355.351562 1042.980469 L 1355.351562 1125.570312 "/>
<path fill-rule="nonzero" fill="rgb(30.200195%, 30.200195%, 30.200195%)" fill-opacity="1" d="M 1441.730469 1120.050781 C 1433.660156 1124.691406 1423.640625 1127.011719 1411.640625 1127.011719 C 1398.371094 1127.011719 1387.890625 1123.328125 1380.230469 1115.980469 C 1372.578125 1108.621094 1368.738281 1098.5 1368.738281 1085.601562 C 1368.738281 1072.628906 1372.929688 1062.050781 1381.308594 1053.871094 C 1389.660156 1045.671875 1400.808594 1041.578125 1414.710938 1041.578125 C 1423.460938 1041.578125 1431.191406 1042.800781 1437.851562 1045.21875 L 1437.851562 1062.679688 C 1431.480469 1058.980469 1423.699219 1057.148438 1414.480469 1057.148438 C 1406.75 1057.148438 1400.480469 1059.648438 1395.621094 1064.660156 C 1390.738281 1069.679688 1388.328125 1076.359375 1388.328125 1084.738281 C 1388.328125 1093.210938 1390.511719 1099.78125 1394.851562 1104.441406 C 1399.21875 1109.078125 1405.101562 1111.398438 1412.511719 1111.398438 C 1416.96875 1111.398438 1420.511719 1110.769531 1423.109375 1109.511719 L 1423.109375 1093.371094 L 1406.589844 1093.371094 L 1406.589844 1078.5 L 1441.730469 1078.5 L 1441.730469 1120.050781 "/>
<path fill-rule="nonzero" fill="rgb(30.200195%, 30.200195%, 30.200195%)" fill-opacity="1" d="M 1496.359375 1127.011719 C 1493.359375 1127.011719 1490.859375 1126.078125 1488.871094 1124.25 C 1486.871094 1122.410156 1485.878906 1120.148438 1485.878906 1117.449219 C 1485.878906 1114.679688 1486.910156 1112.421875 1488.949219 1110.648438 C 1491.019531 1108.878906 1493.570312 1108 1496.640625 1108 C 1499.769531 1108 1502.300781 1108.898438 1504.289062 1110.691406 C 1506.25 1112.460938 1507.238281 1114.71875 1507.238281 1117.449219 C 1507.238281 1120.238281 1506.230469 1122.539062 1504.230469 1124.328125 C 1502.199219 1126.121094 1499.589844 1127.011719 1496.359375 1127.011719 "/>
<path fill-rule="nonzero" fill="rgb(30.200195%, 30.200195%, 30.200195%)" fill-opacity="1" d="M 1528.019531 1127.011719 C 1525.011719 1127.011719 1522.511719 1126.078125 1520.53125 1124.25 C 1518.519531 1122.410156 1517.539062 1120.148438 1517.539062 1117.449219 C 1517.539062 1114.679688 1518.558594 1112.421875 1520.609375 1110.648438 C 1522.671875 1108.878906 1525.230469 1108 1528.289062 1108 C 1531.421875 1108 1533.960938 1108.898438 1535.941406 1110.691406 C 1537.910156 1112.460938 1538.890625 1114.71875 1538.890625 1117.449219 C 1538.890625 1120.238281 1537.890625 1122.539062 1535.878906 1124.328125 C 1533.859375 1126.121094 1531.238281 1127.011719 1528.019531 1127.011719 "/>
<path fill-rule="nonzero" fill="rgb(30.200195%, 30.200195%, 30.200195%)" fill-opacity="1" d="M 1559.671875 1127.011719 C 1556.671875 1127.011719 1554.171875 1126.078125 1552.179688 1124.25 C 1550.179688 1122.410156 1549.191406 1120.148438 1549.191406 1117.449219 C 1549.191406 1114.679688 1550.21875 1112.421875 1552.261719 1110.648438 C 1554.328125 1108.878906 1556.878906 1108 1559.949219 1108 C 1563.078125 1108 1565.609375 1108.898438 1567.601562 1110.691406 C 1569.558594 1112.460938 1570.550781 1114.71875 1570.550781 1117.449219 C 1570.550781 1120.238281 1569.539062 1122.539062 1567.539062 1124.328125 C 1565.511719 1126.121094 1562.898438 1127.011719 1559.671875 1127.011719 "/>
</svg>
